<?xml version="1.0" encoding="utf-8"?>
<!-- Generator: Adobe Illustrator 26.0.1, SVG Export Plug-In . SVG Version: 6.00 Build 0)  -->
<svg version="1.1" id="Livello_1" xmlns="http://www.w3.org/2000/svg" xmlns:xlink="http://www.w3.org/1999/xlink" x="0px" y="0px"
	 viewBox="0 0 500 500" style="enable-background:new 0 0 500 500;" xml:space="preserve">
<g>
	<path d="M495.4,239.5c-0.5,4.2-0.9,8.4-1.4,12.6c-4,32-16,60.8-35.1,86.7c-26.7,36.3-61.8,61.6-103.3,78.4
		c-38.1,15.5-77.9,21.7-119,19.9c-30.7-1.3-60.5-7.5-89.2-18.6c-1.9-0.7-3.2-0.5-4.8,0.6c-29.2,18.7-58.5,37.4-87.7,56.1
		c-0.8,0.5-1.7,1-2.9,1.7c0.8-6,1.5-11.5,2.3-17.1c2.6-19.2,5.2-38.3,7.8-57.5c1.4-10.4,2.7-20.8,4.2-31.2c0.3-1.8-0.2-2.9-1.4-4.1
		c-23.2-22.7-40.7-49.1-51.1-80C9,272.3,6,257.3,5,241.9c0-0.8-0.3-1.6-0.4-2.4c0-6.2,0-12.4,0-18.5c0.4-3.6,0.7-7.3,1.1-10.9
		C9.4,179.3,20.3,151.3,38,126c24.5-35.2,57.2-60.6,96-78.3c42.3-19.2,86.8-26.7,133-24.2c30.2,1.7,59.5,7.9,87.5,19.2
		C396.5,59.6,432,85,458.9,121.7c19,25.9,31,54.7,35,86.7c0.5,4.2,0.9,8.4,1.4,12.6C495.4,227.2,495.4,233.3,495.4,239.5z M81,431.9
		c1.4-0.8,2.2-1.3,2.9-1.7c15.9-10.1,31.9-20.1,47.8-30.2c1.1-0.7,2.4-1.1,3.7-1.3c5.1-0.6,10.1-1.1,15.2-1.5c1.9-0.1,4,0,5.8,0.7
		c42.4,16,86.1,20.6,130.9,14.5c30.8-4.2,59.9-13.6,87.1-28.8c33-18.5,60-43.2,78.6-76.5c16.4-29.4,23.1-61,19.3-94.5
		c-3.3-29-14.3-55-31.7-78.4c-22.9-30.8-52.8-52.8-87.9-67.9c-42-18.1-85.9-23.9-131.2-19.2c-33.6,3.5-65.5,13.1-95.1,29.6
		c-31.8,17.7-58.2,41.2-76.8,72.8C28,186.3,21.6,225.7,31.8,267.3c7.9,32.4,25,59.6,48.7,82.8c1.3,1.3,2.3,3,3,4.7
		c1.9,4.9,3.5,9.9,5.2,14.9c0.3,0.9,0.6,2,0.4,2.9c-1.8,13.7-3.8,27.4-5.7,41.1C82.6,419.6,81.8,425.5,81,431.9z"/>
	<path d="M285.7,220.8c0,15.9-12.8,28.8-28.7,28.8c-15.9,0-28.8-12.8-28.9-28.7c-0.1-15.9,13-29,28.9-28.9
		C272.9,192,285.7,204.9,285.7,220.8z"/>
	<path d="M171.4,221c-0.1,15.9-13,28.7-29,28.6c-15.9-0.1-28.7-13-28.7-28.9c0.1-16,13.1-28.9,29.1-28.7
		C158.8,192.1,171.5,205,171.4,221z"/>
	<path d="M342.4,220.5c0.4-16.3,13.4-28.9,29.5-28.5c15.7,0.3,28.5,13.6,28.2,29.2c-0.4,16.3-13.5,28.8-29.9,28.4
		C354.8,249.2,342,235.8,342.4,220.5z"/>
</g>
</svg>
