<?xml version="1.0" encoding="utf-8"?>
<!-- Generator: Adobe Illustrator 26.0.1, SVG Export Plug-In . SVG Version: 6.00 Build 0)  -->
<svg version="1.1" id="Livello_1" xmlns="http://www.w3.org/2000/svg" xmlns:xlink="http://www.w3.org/1999/xlink" x="0px" y="0px"
	 viewBox="0 0 500 500" style="enable-background:new 0 0 500 500;" xml:space="preserve">
<path d="M251.6,492.5c-36.9,0-73.9,0-110.8,0c-23.5,0-42.2-9.5-56.3-28c-7.7-10.1-11.4-22-12.4-34.6c-0.3-4.3-0.4-8.7-0.4-13.1
	c0-28.6,0-57.1,0-85.7c0-3.8,0-3.8-3.6-3.9c-32.7-0.8-61.4-25.2-66.9-57.5c-4.3-25.2,3-46.6,21.1-64.7
	C80.6,147.1,138.7,88.9,196.7,30.7c8.5-8.5,17.8-15.8,29.4-19.3c27.2-8.2,52.2-4,73.2,15.9c13.8,13.1,27,26.9,40.5,40.3
	c45.6,45.5,91.1,91,136.8,136.5c10.5,10.4,18.1,22.4,21.5,36.9c8.9,37.8-15.6,76.7-53.7,84.7c-4.2,0.9-8.6,1.1-13,1.5
	c-3,0.3-3.5,0.5-3.5,3.7c0,31.7,0,63.4,0,95.1c0,34.9-27.8,64.2-62.7,66.2c-3.6,0.2-7.1,0.3-10.7,0.3
	C320.4,492.5,286,492.5,251.6,492.5z M291.2,388C291.2,388,291.2,388,291.2,388c0-6.1,0.1-12.2,0-18.3c0-3.1,0.1-6.3-0.4-9.4
	c-1.6-11.4-8.5-19.2-17.8-25.1c-11.7-7.5-24.3-7.9-37.3-3.9c-16.4,4.9-26.9,18.5-27.1,35.2c-0.2,14.8-0.1,29.5,0,44.3
	c0.1,7.5,2.4,14.3,7,20.2c14.6,19.1,43.9,22,62.9,6.2c7.6-6.4,12.2-14.4,12.6-24.4C291.5,404.5,291.2,396.2,291.2,388z"/>
</svg>
