<?xml version="1.0" encoding="utf-8"?>
<!-- Generator: Adobe Illustrator 26.0.1, SVG Export Plug-In . SVG Version: 6.00 Build 0)  -->
<svg version="1.1" id="Livello_1" xmlns="http://www.w3.org/2000/svg" xmlns:xlink="http://www.w3.org/1999/xlink" x="0px" y="0px"
	 viewBox="0 0 500 500" style="enable-background:new 0 0 500 500;" xml:space="preserve">
<g>
	<path d="M249.5,7c0.4,0,0.7,0,1.1,0c0,0.2,0,0.4,0.1,0.5c10.1,11.2,20.2,22.4,30.3,33.7c1.4,1.6,2.7,1.6,4.4,0.5
		c8.8-5.2,17.7-10.4,26.6-15.5c4.3-2.5,8.7-5,13.3-7.6c0.6,1.2,1,2,1.4,2.9c5.7,13,11.4,26,17,39.1c0.9,2.2,2.1,2.7,4.3,2.2
		c12.5-2.8,25.1-5.5,37.7-8.2c7.4-1.6,7.4-1.6,8.2,6c1.4,12.9,2.7,25.8,4,38.6c0.2,1.5,0.4,2.8,2.4,2.9c4.7,0.4,9.5,1,14.2,1.5
		c9.6,1,19.1,2,28.7,3.1c3.5,0.4,3.6,0.8,2.9,4.1c-2.9,13.6-5.8,27.3-8.8,40.9c-0.5,2.4-0.1,3.7,2.3,4.7c9.7,4.1,19.3,8.3,29,12.5
		c4.2,1.8,8.4,3.6,12.7,5.6c-0.7,1.2-1.1,2.2-1.7,3.1c-7,12.2-13.9,24.4-21.1,36.4c-1.4,2.4-1,3.8,0.9,5.5
		c8.6,7.6,17.2,15.4,25.8,23c2.6,2.3,5.2,4.6,7.9,6.8c0,0.4,0,0.7,0,1.1c-0.2,0.1-0.5,0.1-0.7,0.3c-11,9.9-21.9,19.8-33,29.6
		c-2,1.8-2.2,3.2-0.8,5.5c7.2,12.2,14.2,24.4,21.2,36.7c0.5,0.9,0.9,1.8,1.5,2.9c-1.1,0.5-1.9,0.9-2.7,1.3
		c-13,5.7-26,11.4-39.1,16.9c-2.2,0.9-2.7,2.1-2.2,4.3c2.8,12.5,5.5,25.1,8.2,37.7c1.6,7.4,1.6,7.4-5.9,8.2
		c-12.9,1.4-25.8,2.7-38.6,4c-2,0.2-2.8,1-2.9,3c-0.6,6.5-1.3,13.1-2,19.6c-0.9,7.8-1.7,15.6-2.6,23.3c-0.2,2.2-1.1,3-3.6,2.5
		c-13.8-3.1-27.6-5.9-41.4-9c-2.5-0.5-3.7,0-4.7,2.4c-5.5,13-11.2,25.9-16.8,38.9c-0.4,0.9-0.8,1.7-1.3,2.7c-1.1-0.6-2-1-2.8-1.5
		c-12.3-7.1-24.6-14.2-36.9-21.3c-2.1-1.2-3.4-1-5,0.8c-9.9,11.1-19.8,22.1-29.8,33.1c-0.2,0.2-0.2,0.5-0.3,0.7c-0.4,0-0.7,0-1.1,0
		c0-0.2,0-0.4-0.1-0.5c-10.2-11.3-20.4-22.6-30.5-33.9c-1.3-1.4-2.4-1.4-4-0.5c-6.5,3.8-13.1,7.6-19.6,11.4
		c-6.8,3.9-13.5,7.8-20.5,11.8c-0.5-1.1-0.9-1.9-1.3-2.7c-5.7-13-11.4-26-17-39.1c-1-2.2-2.1-2.9-4.5-2.4
		c-12.5,2.8-24.9,5.4-37.4,8.1c-7.5,1.6-7.5,1.7-8.4-6c-1.4-12.9-2.7-25.8-4-38.6c-0.2-1.8-0.8-2.7-2.8-2.9c-4.6-0.4-9.1-1-13.7-1.5
		c-9.7-1.1-19.5-2.1-29.2-3.1c-2.5-0.3-3.3-1.3-2.7-4c3.1-13.7,5.9-27.4,9-41.1c0.6-2.5-0.1-3.7-2.5-4.7
		c-12-5.1-23.9-10.3-35.9-15.5c-1.9-0.8-3.7-1.7-5.7-2.6c0.6-1.2,1.1-2.2,1.6-3.1c7-12.1,13.9-24.2,21-36.1c1.5-2.6,1.1-4-1-5.9
		c-11-9.7-21.8-19.6-32.7-29.4c-0.2-0.2-0.5-0.2-0.7-0.3c0-0.4,0-0.7,0-1.1c0.2-0.1,0.5-0.1,0.7-0.3c11-9.9,21.9-19.8,33-29.6
		c2-1.8,2.2-3.2,0.8-5.5c-7-11.9-13.9-23.9-20.9-35.9c-0.7-1.1-1.2-2.3-1.9-3.6c1.2-0.5,2-0.9,2.8-1.3c12.8-5.6,25.5-11.2,38.4-16.6
		c2.6-1.1,3.7-2.3,2.8-5.2c-0.8-2.5-1-5.1-1.6-7.7c-2.4-11.2-4.9-22.3-7.4-33.4c-0.5-2.2,0.2-3.2,2.3-3.5c2.9-0.4,5.9-0.8,8.8-1.2
		c11.5-1.2,23.1-2.4,34.6-3.6c1.8-0.2,2.5-0.9,2.6-2.7c0.4-4.7,1-9.3,1.5-13.9c1-9.7,2.1-19.3,3.1-29c0.3-2.4,1.2-3.4,3.9-2.8
		c13.7,3.1,27.4,5.9,41.1,9c2.5,0.5,3.7,0,4.7-2.4c4.2-10.1,8.7-20.2,13-30.2c1.6-3.8,3.3-7.5,5-11.4c1.3,0.7,2.2,1.1,3.1,1.6
		c12.2,7,24.3,14,36.4,21.1c2.3,1.4,3.7,1.1,5.5-0.9c7.9-9,15.9-17.9,23.9-26.8C245.5,11.6,247.5,9.3,249.5,7z M315.4,50.6
		c-2.7,1.3-5.1,2.4-7.4,3.6c-9.1,5-18.1,10-27.1,15.1c-2.4,1.3-3.8,1.1-5.7-1c-7.4-8.7-15.1-17.2-22.6-25.8
		c-0.8-0.9-1.3-1.9-2.4-3.4c-1.7,2-2.7,3.3-3.7,4.5c-7.5,8.6-15.2,17.1-22.6,25.8c-1.5,1.8-2.5,2-4.6,0.8
		c-10.2-6-20.5-11.9-30.9-17.7c-3.6-2-3.7-1.9-5.4,1.9c-4.6,10.2-9.3,20.5-13.8,30.8c-1.2,2.8-2.9,3.5-5.9,2.8
		c-10.2-2.3-20.4-4.5-30.6-6.6c-2-0.4-4-0.6-6.1-0.9c-0.3,1.6-0.5,2.9-0.7,4.1c-1.3,11.7-2.5,23.4-3.7,35.2
		c-0.2,1.8-0.9,2.4-2.6,2.6c-7.8,0.7-15.6,1.6-23.3,2.4c-5.2,0.6-10.5,1.1-16,1.8c0.4,2.5,0.6,4.4,1,6.3c2.2,10.6,4.5,21.3,6.8,31.9
		c0.4,1.8-0.1,2.9-1.6,3.7c-2.2,1.1-4.3,2.3-6.5,3.3c-9,4-17.9,8-26.9,11.9c-1.9,0.8-2.3,1.7-1.3,3.5c1.1,2,2,4,3.1,6
		c4.9,8.8,9.7,17.6,14.7,26.4c1.2,2.1,1.1,3.5-1,5.2c-8,6.7-15.7,13.7-23.6,20.6c-1.6,1.4-3.1,2.9-5,4.7c3.6,3.3,6.8,6.5,10.1,9.5
		c6.3,5.7,12.5,11.4,18.9,16.9c1.7,1.5,1.9,2.7,0.7,4.6c-1.1,1.6-2,3.4-2.9,5.2c-4.7,8.3-9.5,16.6-14,25c-2.9,5.3-2.1,4.3,2.1,6.3
		c7.1,3.3,14.3,6.3,21.5,9.5c3.1,1.4,6.1,3,9.2,4.4c2.2,1,3,2.4,2.4,4.9c-1,3.6-1.7,7.4-2.4,11.1c-1.6,7.8-3.2,15.7-4.9,23.5
		c-0.5,2.4,0.2,3.3,2.6,3.4c1.4,0.1,2.9,0.3,4.3,0.5c10.6,1.1,21.3,2.2,31.9,3.3c1.9,0.2,2.6,0.9,2.8,2.8c1,10.7,2.2,21.3,3.3,31.9
		c0.2,2.3,0.6,4.6,1,7.2c2.2-0.3,4-0.5,5.8-0.9c10.1-2.1,20.2-4.3,30.3-6.5c4.6-1,4.6-1,6.9,3.3c1.3,2.5,2.6,5.2,3.7,7.8
		c3.5,7.9,7,15.8,10.4,23.7c0.7,1.7,1.6,2.2,3.3,1.3c1.6-0.9,3.4-1.6,5.1-2.6c9.3-5.2,18.5-10.4,27.8-15.6c1.9-1.1,3.1-0.9,4.5,0.9
		c7.7,8.8,15.5,17.5,23.3,26.3c0.7,0.8,1.6,1.5,2.9,2.7c1-1.2,1.8-2.2,2.6-3.2c7.7-8.6,15.4-17.2,22.9-25.8c1.3-1.5,2.4-1.8,4.1-0.8
		c5.1,2.9,10.2,5.7,15.4,8.5c5.5,3,11,6.2,16.6,9.1c3.3,1.7,3.4,1.6,4.9-1.6c1.3-2.9,2.6-5.9,3.9-8.9c3.3-7.3,6.5-14.7,9.9-21.9
		c1.9-4,2.2-4,6.5-3.1c8.4,1.8,16.7,3.7,25,5.5c3.7,0.8,7.3,1.4,11.2,2.1c0.3-1.7,0.6-2.9,0.7-4.1c1.2-11.1,2.3-22.2,3.4-33.3
		c0.5-4.4,0.5-4.5,4.9-4.9c10.4-1.1,20.8-2,31.1-3.2c7.8-0.9,6.6,0,5.2-7.1c-2.1-10.6-4.4-21.1-6.8-31.7c-0.5-2.1,0.2-3.3,1.9-4.2
		c2.9-1.5,5.8-3,8.7-4.3c8-3.6,16.1-7.2,24.2-10.6c2.1-0.9,2.5-2,1.4-3.9c-0.9-1.6-1.7-3.4-2.6-5c-5-9-10-17.9-15.1-26.8
		c-1.2-2.2-1.1-3.7,1-5.5c8.7-7.5,17.3-15.3,25.8-22.9c0.8-0.7,1.5-1.6,2.6-2.8c-1.1-1-2-1.7-2.9-2.5c-8.7-7.7-17.3-15.5-26-23.1
		c-1.5-1.3-1.8-2.4-0.8-4.1c3-5.4,6-10.8,9-16.3c2.9-5.4,5.8-10.8,8.9-16.1c1.4-2.4,0.6-3.5-1.7-4.4c-2.5-1-5-2.1-7.4-3.3
		c-8.3-3.7-16.5-7.5-24.8-11.3c-2-0.9-2.7-2.2-2.2-4.5c2-8.8,3.9-17.6,5.7-26.4c0.8-3.7,1.4-7.3,2.1-11.3c-2.6-0.4-4.8-0.7-7.1-1
		c-10.6-1.2-21.3-2.3-31.9-3.3c-2.1-0.2-2.9-1.1-3.1-3.1c-0.7-7.7-1.5-15.4-2.3-23.1c-0.5-5.2-1.1-10.3-1.7-15.8
		c-2.4,0.4-4.4,0.6-6.3,1c-10.1,2.1-20.2,4.4-30.3,6.5c-4.2,0.9-4.4,0.9-6.3-2.9c-2.2-4.4-4.1-8.8-6.1-13.2
		C321.6,64.8,318.6,57.9,315.4,50.6z"/>
	<path d="M316.7,125.2c5.2,3.3,10.1,6.5,15,9.6c2.1,1.4,2.4,2.7,0.9,5c-27.6,43.4-55.1,86.9-82.7,130.4
		c-21.4,33.6-42.9,67.2-64.4,100.8c-2,3.1-2.4,3.3-5.5,1.5c-4.1-2.4-8.1-5.1-12.1-7.6c-1.6-1-1.1-2-0.4-3.2c3-5.2,5.9-10.5,9.1-15.6
		c37.3-58.9,74.6-117.9,111.9-176.8c8.7-13.7,17.4-27.3,26.1-41C315.2,127.5,315.9,126.5,316.7,125.2z"/>
	<path d="M298.8,288.2c24.6-1.1,42.8,21.7,43.1,42c0.3,24.9-20.4,43.6-42.2,44.1c-24.1,0.5-43.9-18.9-44.2-42.7
		C255.1,308.3,275.2,287.2,298.8,288.2z M319.9,331c-0.1-12.2-9.7-21.6-22-21.4c-11.5,0.1-20.4,9.7-20.3,21.9
		c0.1,12.2,8.9,21,20.9,21.1C310.5,352.5,320,342.9,319.9,331z"/>
	<path d="M203,211.3c-20.1,0.2-35.8-10.6-42-27.4c-6.2-16.7-1.4-35.9,12.2-47.3c12.6-10.5,26.7-14.1,42.5-8.3
		c16.1,6,25.7,17.7,28.2,34.5c3.3,22.4-10.9,38.7-25,45.6C213.2,211.2,206.9,211.3,203,211.3z M201,190.1
		c12.3,0.1,21.4-8.8,21.5-21.1c0.1-12.2-9-21.5-21.1-21.5c-11.8,0-21.3,9.4-21.3,21.2C180,180.8,189.1,190.1,201,190.1z"/>
</g>
</svg>
