<?xml version="1.0" encoding="utf-8"?>
<!-- Generator: Adobe Illustrator 26.0.1, SVG Export Plug-In . SVG Version: 6.00 Build 0)  -->
<svg version="1.1" id="Livello_1" xmlns="http://www.w3.org/2000/svg" xmlns:xlink="http://www.w3.org/1999/xlink" x="0px" y="0px"
	 viewBox="0 0 500 500" style="enable-background:new 0 0 500 500;" xml:space="preserve">
<path d="M491.8,89.1c-3.6,7.9-7.3,15.9-10.9,23.8c-2.3,5.1-4.6,10.1-7,15.6c-38.2-49.6-87.9-77.4-150.4-80.6
	c-50.7-2.6-96.3,11.7-136.3,43c-32.7,25.6-55.2,58.4-68.1,98.3c109.4,0,218.5,0,327.9,0c-2.4,5.3-4.6,10.3-6.8,15.2
	c-3.4,7.7-6.9,15.4-10.2,23.2c-0.8,1.8-1.7,2.2-3.5,2.2c-39-0.1-78,0-117,0c-65.2,0-130.5,0-195.7,0c-3.2,0-3.2,0-3.5,3.2
	c-1,11.4-1,22.7,0,34.1c0.3,3.1,0.3,3.1,3.5,3.1c97.8,0,195.7,0,293.5,0c1.1,0,2.2,0,3.6,0c-0.4,1.1-0.7,1.8-1,2.5
	c-5.3,12-10.6,23.9-15.9,35.9c-0.7,1.7-1.7,2.2-3.5,2.2c-89.3-0.1-178.6,0-267.9,0c-1,0-2,0-3.8,0c20.8,60,59.5,102.9,118,127
	c42.1,17.3,85.6,19.4,129.5,7.1c43.9-12.4,79.3-37.4,107.4-73.7c0.1,1.1,0.1,1.7,0.1,2.4c0,18,0,35.9,0,53.9c0,1.6-0.5,2.6-1.7,3.6
	c-21.1,18.8-44.7,33.5-70.8,44.3c-17,7-34.6,11.9-52.7,14.8c-15.3,2.5-30.8,3.4-46.3,2.8c-24.2-1-47.7-5.6-70.5-13.9
	c-36-13.1-67.3-33.6-93.9-61.1c-28.8-29.9-49.2-64.7-60.5-104.7c-0.5-1.9-1.3-2.4-3.2-2.4c-21,0.1-42.1,0.1-63.1,0.1
	c-0.9,0-1.7,0-2.9,0c0.3-0.9,0.6-1.6,0.9-2.3c5.4-12.1,10.8-24.2,16.1-36.4c0.7-1.6,1.6-2,3.2-2c12.8,0,25.6,0,38.4,0
	c0.9,0,1.9,0,2.5,0c0-13.5,0-26.8,0-40.4c-20.1,0-40.4,0-61.1,0c0.3-0.9,0.5-1.6,0.8-2.2c5.4-12.2,10.8-24.4,16.2-36.6
	c0.7-1.5,1.5-1.9,3-1.9c15.3,0.1,30.5,0,45.8,0.1c1.9,0,2.8-0.4,3.4-2.5c10.6-37.8,29.5-71,56-99.9c25.1-27.3,54.7-48.1,89-62.3
	c18.1-7.5,36.8-12.7,56.2-15.3c6.4-0.9,12.9-1.3,19.3-2c0.7-0.1,1.4-0.3,2.1-0.4c7.9,0,15.8,0,23.7,0c0.8,0.2,1.7,0.4,2.5,0.4
	c13.7,0.7,27.2,2.7,40.4,6c47.1,11.5,87.1,35.3,120.6,70.2c1.5,1.5,3,3,4.5,4.5C491.8,88.4,491.8,88.8,491.8,89.1z"/>
</svg>
